<svg width="402" height="389" viewBox="0 0 402 389" fill="none" xmlns="http://www.w3.org/2000/svg">
<path d="M320.276 211.981C317.75 210.685 315.666 208.67 314.287 206.189C312.907 203.708 312.294 200.874 312.525 198.046C312.756 195.217 313.821 192.52 315.585 190.296C317.349 188.072 319.733 186.422 322.435 185.553C325.137 184.684 328.036 184.636 330.766 185.415C333.495 186.194 335.932 187.764 337.769 189.928C339.606 192.092 340.759 194.753 341.084 197.572C341.409 200.392 340.89 203.245 339.594 205.77C338.734 207.447 337.552 208.938 336.115 210.158C334.679 211.378 333.016 212.303 331.222 212.879C329.428 213.456 327.538 213.674 325.659 213.52C323.781 213.366 321.952 212.843 320.276 211.981Z" fill="#263238"/>
<path d="M334.056 191.513L341.016 201.28C341.295 199.382 341.187 197.447 340.698 195.592L334.056 191.513Z" fill="#7E57C2"/>
<path d="M319.462 186.92L336.001 210.251C337.375 209.11 338.521 207.72 339.379 206.153L325.505 184.937C323.368 185.137 321.302 185.814 319.462 186.92Z" fill="#7E57C2"/>
<path d="M326.3 213.544L319.116 203.253L322.858 213.001C323.979 213.319 325.135 213.501 326.3 213.544Z" fill="#7E57C2"/>
<path d="M332.138 212.534L315.71 190.147C315.551 190.344 315.402 190.559 315.252 190.765L327.151 213.563C328.861 213.517 330.549 213.169 332.138 212.534Z" fill="#7E57C2"/>
<path d="M194.088 369.686C189.923 371.585 185.29 372.206 180.772 371.472C176.255 370.737 172.056 368.68 168.708 365.56C165.36 362.44 163.012 358.397 161.961 353.942C160.91 349.488 161.203 344.822 162.804 340.534C164.404 336.246 167.24 332.529 170.953 329.853C174.666 327.177 179.088 325.662 183.662 325.499C188.236 325.336 192.756 326.532 196.649 328.938C200.543 331.343 203.636 334.849 205.538 339.012C206.803 341.777 207.51 344.765 207.619 347.804C207.727 350.843 207.236 353.874 206.173 356.723C205.109 359.572 203.494 362.183 201.421 364.408C199.347 366.632 196.855 368.426 194.088 369.686Z" fill="#263238"/>
<mask id="mask0_730_112972" style="mask-type:luminance" maskUnits="userSpaceOnUse" x="161" y="325" width="47" height="47">
<path d="M194.088 369.686C189.923 371.585 185.29 372.206 180.772 371.472C176.255 370.737 172.056 368.68 168.708 365.56C165.36 362.44 163.012 358.397 161.961 353.942C160.91 349.488 161.203 344.822 162.804 340.534C164.404 336.246 167.24 332.529 170.953 329.853C174.666 327.177 179.088 325.662 183.662 325.499C188.236 325.336 192.756 326.532 196.649 328.938C200.543 331.343 203.636 334.849 205.538 339.012C206.803 341.777 207.51 344.765 207.619 347.804C207.727 350.843 207.236 353.874 206.173 356.723C205.109 359.572 203.494 362.183 201.421 364.408C199.347 366.632 196.855 368.426 194.088 369.686Z" fill="white"/>
</mask>
<g mask="url(#mask0_730_112972)">
<path d="M205.332 358.639L189.541 333.848L207.474 351.08C207.521 350.603 207.558 350.144 207.577 349.639L186.332 325.56C184.516 325.409 182.688 325.478 180.888 325.765L185.153 332.548L178.1 326.373L183.713 336.533L172.365 328.918C172.085 329.096 171.804 329.273 171.533 329.461L192.591 352.848L175.883 340.135L181.823 349.489L173.17 343.502L195.827 368.817C198.585 367.276 200.996 365.184 202.909 362.67L198.297 354.971L204.022 361.071C204.509 360.288 204.946 359.476 205.332 358.639Z" fill="#7E57C2"/>
<path d="M191.29 370.753L173.189 349.873L181.234 362.296L161.401 346.749C160.913 352.67 162.722 358.551 166.453 363.175C170.183 367.799 175.549 370.811 181.44 371.586L174.293 365.234L185.387 371.782C187.391 371.691 189.374 371.346 191.29 370.753Z" fill="#7E57C2"/>
<path d="M193.086 327.178L203.237 338.965L201.178 334.466L204.462 336.992C201.873 332.541 197.868 329.087 193.086 327.178Z" fill="#7E57C2"/>
<path d="M169.484 345.411L164.002 337.833C162.876 339.979 162.087 342.286 161.664 344.672L169.484 345.411Z" fill="#7E57C2"/>
</g>
<path d="M218.85 333.249C217.166 329.563 209.701 329.049 199.785 331.303C200.415 331.857 201.011 332.447 201.571 333.071C208.98 331.369 214.266 331.519 215.36 333.895C217.288 338.114 205.267 347.749 188.503 355.411C171.739 363.073 156.602 365.879 154.666 361.66C153.674 359.49 156.397 355.879 161.551 351.837C161.433 351.016 161.361 350.188 161.336 349.358C154.142 354.971 150.316 360.435 151.897 363.877C154.563 369.715 171.72 367.619 190.252 359.134C208.784 350.649 221.516 339.087 218.85 333.249Z" fill="#263238"/>
<path d="M74.5132 151.109C87.1351 151.109 97.3672 140.877 97.3672 128.255C97.3672 115.633 87.1351 105.401 74.5132 105.401C61.8913 105.401 51.6592 115.633 51.6592 128.255C51.6592 140.877 61.8913 151.109 74.5132 151.109Z" fill="#7E57C2"/>
<path d="M79.9016 111.351C81.4355 109.944 83.2059 108.82 85.131 108.03C83.2757 107.049 81.2918 106.334 79.2374 105.906C77.1195 107.319 75.1061 108.882 73.2129 110.584C65.0367 118.011 67.2632 117.272 55.3824 121.725C54.2863 122.13 53.2307 122.638 52.2298 123.241C51.8543 124.876 51.6629 126.549 51.6592 128.227C51.6616 131.111 52.2107 133.968 53.2776 136.646C57.5247 135.355 63.1751 133.26 65.7851 130.65C70.238 126.216 70.9864 119.527 79.9016 111.351Z" fill="#263238"/>
<path d="M57.9082 143.943C59.6378 145.779 61.6573 147.318 63.886 148.499C68.1425 145.524 70.1257 142.362 76.1877 139.612C81.5106 137.189 90.2949 136.656 95.7769 136.59C96.8195 133.942 97.3558 131.121 97.3578 128.274C97.3578 127.881 97.3578 127.497 97.3017 127.104C90.8266 127.609 84.4618 129.068 78.4142 131.436C69.7702 134.869 65.5792 140.997 57.9082 143.943Z" fill="#263238"/>
<path d="M80.6406 120.266C84.6819 122.287 90.931 121.201 95.7487 119.854C94.8242 117.529 93.5254 115.371 91.9039 113.465C85.4677 114.672 75.0463 117.469 80.6406 120.266Z" fill="#263238"/>
<path d="M85.7295 309.806L86.2066 309.02C87.4955 310.212 89.194 310.862 90.9495 310.835C93.8308 310.835 95.1031 309.581 95.1031 308.028C95.1031 303.716 86.1224 306.298 86.1224 301.003C86.1224 298.963 87.6847 297.176 91.2208 297.176C92.7625 297.165 94.2718 297.618 95.5521 298.477L95.1592 299.319C93.9961 298.532 92.6252 298.109 91.2208 298.103C88.4144 298.103 87.1702 299.394 87.1702 300.984C87.1702 305.297 96.1509 302.743 96.1509 307.963C96.1509 310.002 94.5231 311.77 90.9682 311.77C89.0319 311.828 87.1503 311.123 85.7295 309.806Z" fill="#263238"/>
<path d="M108.434 306.541H99.2096C99.2635 307.442 99.582 308.306 100.125 309.027C100.668 309.747 101.412 310.291 102.263 310.591C103.114 310.891 104.034 310.932 104.909 310.711C105.784 310.49 106.574 310.016 107.18 309.348L107.779 310.03C107.275 310.604 106.651 311.057 105.95 311.358C105.249 311.659 104.49 311.8 103.728 311.77C103 311.807 102.272 311.692 101.591 311.433C100.909 311.173 100.289 310.775 99.7704 310.263C99.2513 309.751 98.8445 309.136 98.5756 308.458C98.3067 307.781 98.1818 307.054 98.2087 306.326C98.2087 304.961 98.7507 303.653 99.7156 302.688C100.681 301.723 101.989 301.181 103.354 301.181C104.718 301.181 106.027 301.723 106.992 302.688C107.957 303.653 108.499 304.961 108.499 306.326C108.462 306.335 108.434 306.438 108.434 306.541ZM99.2283 305.737H107.451C107.401 304.68 106.946 303.683 106.18 302.954C105.415 302.224 104.398 301.817 103.34 301.817C102.282 301.817 101.265 302.224 100.499 302.954C99.7339 303.683 99.2787 304.68 99.2283 305.737Z" fill="#263238"/>
<path d="M116.722 300.844V301.854H116.47C114.084 301.854 112.672 303.435 112.672 306.083V311.696H111.643V300.928H112.625V303.276C112.968 302.493 113.548 301.838 114.283 301.401C115.018 300.965 115.871 300.77 116.722 300.844Z" fill="#263238"/>
<path d="M128.659 300.928L123.804 311.658H122.756L117.929 300.928H119.024L123.29 310.526L127.612 300.928H128.659Z" fill="#263238"/>
<path d="M130.567 297.495C130.567 297.271 130.656 297.057 130.814 296.899C130.972 296.742 131.186 296.653 131.409 296.653C131.573 296.655 131.733 296.705 131.868 296.797C132.004 296.889 132.109 297.019 132.171 297.171C132.233 297.323 132.248 297.489 132.216 297.65C132.184 297.811 132.105 297.958 131.989 298.074C131.873 298.19 131.725 298.269 131.565 298.302C131.404 298.334 131.237 298.318 131.086 298.256C130.934 298.195 130.804 298.089 130.712 297.954C130.619 297.818 130.569 297.659 130.567 297.495ZM130.895 300.928H131.924V311.658H130.895V300.928Z" fill="#263238"/>
<path d="M135.086 306.289C135.055 305.567 135.175 304.847 135.437 304.174C135.698 303.501 136.097 302.89 136.606 302.378C137.116 301.867 137.726 301.466 138.398 301.202C139.07 300.938 139.79 300.816 140.511 300.844C141.301 300.807 142.086 300.969 142.797 301.313C143.508 301.658 144.121 302.175 144.581 302.818L143.823 303.379C143.445 302.86 142.945 302.442 142.368 302.162C141.791 301.881 141.153 301.747 140.511 301.77C139.347 301.823 138.249 302.323 137.444 303.165C136.639 304.008 136.189 305.128 136.189 306.293C136.189 307.458 136.639 308.579 137.444 309.421C138.249 310.264 139.347 310.763 140.511 310.816C141.153 310.84 141.791 310.705 142.368 310.425C142.945 310.144 143.445 309.726 143.823 309.207L144.581 309.769C144.118 310.407 143.504 310.92 142.794 311.263C142.083 311.606 141.299 311.767 140.511 311.733C139.79 311.759 139.071 311.636 138.4 311.372C137.728 311.107 137.119 310.707 136.609 310.196C136.1 309.685 135.702 309.074 135.44 308.401C135.177 307.729 135.057 307.01 135.086 306.289Z" fill="#263238"/>
<path d="M156.537 306.541H147.313C147.366 307.441 147.685 308.306 148.228 309.026C148.771 309.747 149.515 310.291 150.366 310.591C151.217 310.89 152.137 310.932 153.012 310.711C153.887 310.49 154.677 310.015 155.283 309.347L155.882 310.03C155.378 310.603 154.754 311.057 154.053 311.358C153.352 311.659 152.593 311.8 151.831 311.77C151.102 311.807 150.374 311.692 149.692 311.432C149.011 311.173 148.39 310.775 147.87 310.263C147.351 309.751 146.943 309.137 146.673 308.459C146.403 307.781 146.277 307.055 146.302 306.326C146.26 305.625 146.362 304.923 146.602 304.263C146.841 303.603 147.214 303 147.696 302.489C148.178 301.979 148.76 301.573 149.405 301.296C150.05 301.02 150.745 300.878 151.447 300.881C152.145 300.876 152.837 301.014 153.479 301.288C154.121 301.562 154.7 301.965 155.179 302.472C155.658 302.98 156.028 303.58 156.264 304.237C156.501 304.893 156.6 305.592 156.555 306.288C156.555 306.335 156.537 306.438 156.537 306.541ZM147.331 305.736H155.554C155.504 304.68 155.049 303.683 154.283 302.953C153.518 302.223 152.5 301.816 151.443 301.816C150.385 301.816 149.368 302.223 148.602 302.953C147.837 303.683 147.382 304.68 147.331 305.736Z" fill="#263238"/>
<path d="M165.228 305.549V297.27H166.247V305.512C166.247 309.104 167.978 310.788 170.971 310.788C173.965 310.788 175.649 309.104 175.649 305.512V297.27H176.697V305.549C176.697 309.665 174.498 311.761 170.925 311.761C167.351 311.761 165.228 309.665 165.228 305.549Z" fill="#263238"/>
<path d="M190.916 305.39V311.658H189.887V305.465C189.887 303.042 188.596 301.723 186.416 301.723C185.863 301.685 185.309 301.768 184.791 301.966C184.273 302.164 183.805 302.472 183.418 302.869C183.03 303.265 182.734 303.742 182.549 304.264C182.365 304.787 182.295 305.343 182.347 305.895V311.611H181.318V300.928H182.309V303.248C182.703 302.474 183.315 301.833 184.071 301.405C184.826 300.978 185.691 300.782 186.557 300.843C189.167 300.843 190.916 302.387 190.916 305.39Z" fill="#263238"/>
<path d="M202.89 304.848V311.649H201.908V309.778C201.514 310.437 200.943 310.973 200.261 311.326C199.578 311.678 198.81 311.832 198.044 311.77C195.64 311.77 194.181 310.545 194.181 308.711C194.181 307.093 195.21 305.708 198.185 305.708H201.87V304.848C201.87 302.855 200.776 301.789 198.68 301.789C197.324 301.773 196.009 302.256 194.985 303.145L194.471 302.406C195.673 301.4 197.197 300.859 198.765 300.881C201.412 300.844 202.89 302.2 202.89 304.848ZM201.87 308.477V306.466H198.213C195.986 306.466 195.21 307.401 195.21 308.627C195.21 310.021 196.295 310.882 198.185 310.882C198.975 310.933 199.761 310.727 200.425 310.296C201.089 309.864 201.596 309.23 201.87 308.487V308.477Z" fill="#263238"/>
<path d="M215.529 300.928L210.683 311.658H209.635L204.808 300.928H205.893L210.215 310.526L214.528 300.928H215.529Z" fill="#263238"/>
<path d="M225.183 304.848V311.649H224.248V309.778C223.855 310.438 223.284 310.975 222.601 311.327C221.918 311.679 221.15 311.833 220.384 311.77C217.98 311.77 216.521 310.545 216.521 308.711C216.521 307.093 217.55 305.708 220.524 305.708H224.21V304.848C224.21 302.855 223.116 301.789 221.02 301.789C219.664 301.773 218.349 302.256 217.325 303.145L216.811 302.406C218.013 301.4 219.537 300.859 221.104 300.881C223.705 300.844 225.183 302.2 225.183 304.848ZM224.163 308.477V306.466H220.506C218.289 306.466 217.503 307.401 217.503 308.627C217.503 310.021 218.588 310.882 220.478 310.882C221.268 310.933 222.054 310.727 222.718 310.296C223.382 309.864 223.889 309.23 224.163 308.487V308.477Z" fill="#263238"/>
<path d="M229.093 297.495C229.093 297.271 229.182 297.057 229.34 296.899C229.498 296.742 229.712 296.653 229.935 296.653C230.045 296.653 230.153 296.674 230.254 296.716C230.355 296.758 230.447 296.819 230.524 296.897C230.601 296.974 230.663 297.066 230.704 297.167C230.746 297.268 230.768 297.376 230.768 297.485C230.768 297.595 230.746 297.703 230.704 297.804C230.663 297.905 230.601 297.997 230.524 298.074C230.447 298.151 230.355 298.213 230.254 298.255C230.153 298.296 230.045 298.318 229.935 298.318C229.826 298.32 229.716 298.301 229.614 298.261C229.512 298.221 229.419 298.16 229.341 298.084C229.263 298.007 229.2 297.915 229.158 297.814C229.115 297.713 229.093 297.604 229.093 297.495ZM229.421 300.928H230.45V311.658H229.421V300.928Z" fill="#263238"/>
<path d="M234.781 296.428H235.81V311.677H234.781V296.428Z" fill="#263238"/>
<path d="M247.887 304.848V311.649H246.952V309.778C246.559 310.438 245.988 310.975 245.305 311.327C244.622 311.679 243.854 311.833 243.088 311.77C240.684 311.77 239.225 310.545 239.225 308.711C239.225 307.093 240.254 305.708 243.238 305.708H246.914V304.848C246.914 302.855 245.82 301.789 243.724 301.789C242.368 301.773 241.053 302.256 240.029 303.145L239.515 302.406C240.717 301.4 242.241 300.859 243.809 300.881C246.409 300.844 247.887 302.2 247.887 304.848ZM246.868 308.477V306.466H243.21C240.993 306.466 240.207 307.401 240.207 308.627C240.207 310.021 241.292 310.882 243.191 310.882C243.98 310.931 244.764 310.724 245.426 310.293C246.088 309.861 246.594 309.228 246.868 308.487V308.477Z" fill="#263238"/>
<path d="M262.808 306.288C262.842 307 262.729 307.712 262.476 308.378C262.223 309.044 261.836 309.652 261.338 310.162C260.841 310.673 260.244 311.076 259.584 311.346C258.925 311.616 258.217 311.748 257.504 311.733C256.599 311.758 255.706 311.526 254.928 311.064C254.15 310.602 253.519 309.929 253.107 309.123V311.658H252.125V296.428H253.154V303.398C253.572 302.613 254.201 301.96 254.969 301.512C255.737 301.065 256.615 300.84 257.504 300.862C258.215 300.846 258.922 300.977 259.581 301.245C260.24 301.514 260.837 301.915 261.334 302.424C261.832 302.932 262.219 303.538 262.473 304.203C262.726 304.868 262.841 305.578 262.808 306.288ZM261.779 306.288C261.741 305.441 261.454 304.624 260.956 303.938C260.457 303.252 259.768 302.727 258.974 302.429C258.18 302.132 257.316 302.073 256.489 302.262C255.662 302.451 254.909 302.878 254.323 303.491C253.736 304.104 253.343 304.875 253.191 305.709C253.039 306.544 253.136 307.404 253.469 308.184C253.801 308.965 254.356 309.63 255.063 310.098C255.771 310.565 256.6 310.815 257.448 310.816C258.036 310.825 258.62 310.712 259.162 310.485C259.705 310.258 260.194 309.922 260.601 309.497C261.007 309.072 261.322 308.567 261.525 308.015C261.727 307.463 261.814 306.875 261.779 306.288Z" fill="#263238"/>
<path d="M265.999 296.428H267.018V311.677H265.999V296.428Z" fill="#263238"/>
<path d="M280.377 306.541H271.153C271.207 307.442 271.525 308.306 272.068 309.027C272.612 309.747 273.355 310.291 274.206 310.591C275.057 310.891 275.978 310.932 276.852 310.711C277.727 310.49 278.517 310.016 279.123 309.348L279.722 310.03C279.219 310.604 278.594 311.057 277.893 311.358C277.193 311.659 276.433 311.8 275.671 311.77C274.943 311.807 274.215 311.692 273.534 311.433C272.853 311.173 272.233 310.775 271.714 310.263C271.195 309.751 270.788 309.136 270.519 308.458C270.25 307.781 270.125 307.054 270.152 306.326C270.152 304.961 270.694 303.653 271.659 302.688C272.624 301.723 273.933 301.181 275.297 301.181C276.662 301.181 277.97 301.723 278.935 302.688C279.9 303.653 280.442 304.961 280.442 306.326C280.442 306.335 280.377 306.438 280.377 306.541ZM271.209 305.783H279.441C279.391 304.727 278.936 303.73 278.17 303C277.405 302.27 276.388 301.863 275.33 301.863C274.272 301.863 273.255 302.27 272.49 303C271.724 303.73 271.269 304.727 271.218 305.783H271.209Z" fill="#263238"/>
<path d="M136.676 243.9C136.676 260.15 124.749 274.304 98.5362 274.304C85.8229 274.304 72.4548 270.768 63.5396 264.472L71.959 248.222C78.9003 253.461 88.4704 256.473 98.0404 256.473C108.649 256.473 115.207 252.02 115.207 244.555C115.207 237.343 110.529 232.628 93.8401 232.628H70.3593L75.0367 180.989H130.998V198.024H92.7643L91.3236 215.452H98.8075C125.927 215.452 136.676 227.642 136.676 243.9ZM145.32 226.856C145.32 196.583 162.093 179.417 184.611 179.417C207.128 179.417 223.901 196.583 223.901 226.856C223.901 257.128 207.259 274.304 184.611 274.304C161.963 274.304 145.32 257.138 145.32 226.856ZM202.591 226.856C202.591 206.022 195.257 197.369 184.639 197.369C174.021 197.369 166.864 206.022 166.864 226.856C166.864 247.689 174.199 256.342 184.639 256.342C195.079 256.342 202.591 247.698 202.591 226.856ZM300.761 244.686C300.761 260.15 288.834 274.304 262.752 274.304C249.908 274.304 236.671 270.768 227.756 264.472L236.016 248.222C242.967 253.461 252.658 256.473 262.21 256.473C272.827 256.473 279.376 252.151 279.376 244.686C279.376 237.735 274.268 233.414 262.21 233.414H252.527V219.381L271.406 198.015H232.349V180.989H296.57V194.75L275.858 218.333C292.37 220.962 300.761 231.178 300.761 244.686Z" fill="#263238"/>
<path d="M253.473 42.7139C253.015 41.9841 252.866 41.1027 253.057 40.2628C253.248 39.4229 253.764 38.693 254.492 38.2329L259.796 34.8745C260.159 34.6451 260.562 34.4895 260.985 34.4166C261.407 34.3437 261.84 34.3549 262.258 34.4496C262.676 34.5444 263.071 34.7208 263.421 34.9687C263.771 35.2166 264.068 35.5311 264.296 35.8942C264.526 36.2564 264.681 36.6602 264.754 37.0827C264.827 37.5051 264.816 37.9378 264.721 38.3559C264.626 38.774 264.45 39.1692 264.202 39.519C263.954 39.8687 263.64 40.1661 263.276 40.3939L257.982 43.7336C257.619 43.9633 257.214 44.1191 256.791 44.1921C256.368 44.2652 255.934 44.254 255.516 44.1593C255.097 44.0646 254.701 43.8881 254.35 43.6401C253.999 43.3921 253.701 43.0774 253.473 42.7139Z" fill="white" stroke="#263238" stroke-width="1.19148" stroke-linecap="round" stroke-linejoin="round"/>
<path d="M250.591 65.6333C248.083 62.0539 244.963 58.9442 241.376 56.4468C236.68 53.643 231.819 51.1251 226.82 48.9068L223.798 32.0679C226.693 29.2903 229.289 26.2176 231.544 22.9001C234.276 18.494 233.415 15.5378 231.666 12.4881C229.917 9.4384 227.494 11.4123 227.129 12.8062C226.861 14.2738 226.698 15.7588 226.642 17.2497C226.642 17.2497 225.015 6.02386 224.07 3.46997C223.125 0.916081 219.523 3.37642 219.841 4.22772C219.841 4.22772 218.756 1.0377 216.52 1.00028C214.285 0.962856 213.648 4.74224 213.648 4.74224C213.648 4.74224 210.776 3.41384 209.167 5.07902C207.558 6.74419 208.325 10.9165 208.325 10.9165C208.325 10.9165 205.762 11.852 205.369 15.491C204.976 19.1301 205.294 25.5008 206.305 27.2501C206.824 28.0804 207.278 28.9499 207.661 29.8508C206.389 45.0432 206.436 44.0422 206.062 50.1042C205.8 54.37 208.597 64.2862 212.61 68.4117C216.623 72.5372 230.983 79.8247 230.983 79.8247C230.983 79.8247 245.979 75.9611 250.591 65.6333Z" fill="white"/>
<mask id="mask1_730_112972" style="mask-type:luminance" maskUnits="userSpaceOnUse" x="205" y="1" width="46" height="79">
<path d="M250.591 65.6333C248.083 62.0539 244.963 58.9442 241.376 56.4468C236.68 53.643 231.819 51.1251 226.82 48.9068L223.798 32.0679C226.693 29.2903 229.289 26.2176 231.544 22.9001C234.276 18.494 233.415 15.5378 231.666 12.4881C229.917 9.4384 227.494 11.4123 227.129 12.8062C226.861 14.2738 226.698 15.7588 226.642 17.2497C226.642 17.2497 225.015 6.02386 224.07 3.46997C223.125 0.916081 219.523 3.37642 219.841 4.22772C219.841 4.22772 218.756 1.0377 216.52 1.00028C214.285 0.962856 213.648 4.74224 213.648 4.74224C213.648 4.74224 210.776 3.41384 209.167 5.07902C207.558 6.74419 208.325 10.9165 208.325 10.9165C208.325 10.9165 205.762 11.852 205.369 15.491C204.976 19.1301 205.294 25.5008 206.305 27.2501C206.824 28.0804 207.278 28.9499 207.661 29.8508C206.389 45.0432 206.436 44.0422 206.062 50.1042C205.8 54.37 208.597 64.2862 212.61 68.4117C216.623 72.5372 230.983 79.8247 230.983 79.8247C230.983 79.8247 245.979 75.9611 250.591 65.6333Z" fill="white"/>
</mask>
<g mask="url(#mask1_730_112972)">
<path d="M231.039 79.8432C231.039 79.8432 246.007 75.9609 250.591 65.6331C250.591 65.6331 250.291 65.1934 249.758 64.4918L245.867 61.2457C240.341 61.7091 234.851 62.5246 229.43 63.6873C221.216 65.5583 214.827 61.5544 212.395 52.4614C209.962 43.3684 207.717 29.9067 207.717 29.9067C206.445 45.0991 206.492 44.0981 206.118 50.1601C205.856 54.426 208.653 64.3422 212.666 68.4677C216.679 72.5932 231.039 79.8432 231.039 79.8432Z" fill="#7E57C2"/>
<path opacity="0.5" d="M231.039 79.8432C231.039 79.8432 246.007 75.9609 250.591 65.6331C250.591 65.6331 250.291 65.1934 249.758 64.4918L245.867 61.2457C240.341 61.7091 234.851 62.5246 229.43 63.6873C221.216 65.5583 214.827 61.5544 212.395 52.4614C209.962 43.3684 207.717 29.9067 207.717 29.9067C206.445 45.0991 206.492 44.0981 206.118 50.1601C205.856 54.426 208.653 64.3422 212.666 68.4677C216.679 72.5932 231.039 79.8432 231.039 79.8432Z" fill="white"/>
</g>
<path d="M250.591 65.6333C248.083 62.0539 244.963 58.9442 241.376 56.4468C236.68 53.643 231.819 51.1251 226.82 48.9068L223.798 32.0679C226.693 29.2903 229.289 26.2176 231.544 22.9001C234.276 18.494 233.415 15.5378 231.666 12.4881C229.917 9.4384 227.494 11.4123 227.129 12.8062C226.861 14.2738 226.698 15.7588 226.642 17.2497C226.642 17.2497 225.015 6.02386 224.07 3.46997C223.125 0.916081 219.523 3.37642 219.841 4.22772C219.841 4.22772 218.756 1.0377 216.52 1.00028C214.285 0.962856 213.648 4.74224 213.648 4.74224C213.648 4.74224 210.776 3.41384 209.167 5.07902C207.558 6.74419 208.325 10.9165 208.325 10.9165C208.325 10.9165 205.762 11.852 205.369 15.491C204.976 19.1301 205.294 25.5008 206.305 27.2501C206.824 28.0804 207.278 28.9499 207.661 29.8508C206.389 45.0432 206.436 44.0422 206.062 50.1042C205.8 54.37 208.597 64.2862 212.61 68.4117C216.623 72.5372 230.983 79.8247 230.983 79.8247C230.983 79.8247 245.979 75.9611 250.591 65.6333Z" stroke="#263238" stroke-width="1.19148" stroke-linecap="round" stroke-linejoin="round"/>
<path d="M225.651 42.3676L223.78 32.0772C226.674 29.2995 229.27 26.2269 231.526 22.9094C234.257 18.5032 233.397 15.5471 231.647 12.4974C229.898 9.44768 227.475 11.4216 227.11 12.8154C226.842 14.2831 226.679 15.7681 226.624 17.259C226.624 17.259 224.996 6.03314 224.051 3.47925C223.106 0.925359 219.505 3.3857 219.823 4.237C219.823 4.237 218.738 1.04697 216.502 1.00955C214.266 0.972134 213.63 4.75152 213.63 4.75152C213.63 4.75152 210.758 3.42312 209.149 5.08829C207.54 6.75347 208.307 10.9258 208.307 10.9258C208.307 10.9258 205.744 11.8612 205.351 15.5003C204.958 19.1394 205.276 25.5101 206.286 27.2594C206.805 28.0896 207.259 28.9592 207.643 29.8601C207.081 36.5769 206.773 40.1505 206.576 42.5266L225.651 42.3676Z" fill="white" stroke="#263238" stroke-width="1.19148" stroke-linecap="round" stroke-linejoin="round"/>
<path d="M210.721 65.8672C211.066 66.4311 211.444 66.9746 211.853 67.4949C215.8 64.1926 224.688 56.269 228.691 49.468C227.569 49.1125 226.82 48.9067 226.82 48.9067C226.82 48.9067 218.551 59.7491 210.721 65.8672Z" fill="white" stroke="#263238" stroke-width="1.19148" stroke-linecap="round" stroke-linejoin="round"/>
<path d="M226.643 17.2311C226.643 17.2311 217.802 16.9037 216.867 24.3596" stroke="#263238" stroke-width="1.19148" stroke-linecap="round" stroke-linejoin="round"/>
<path d="M219.841 4.20898L220.141 13.6107" stroke="#263238" stroke-width="1.19148" stroke-linecap="round" stroke-linejoin="round"/>
<path d="M213.648 4.76074L214.257 13.2644" stroke="#263238" stroke-width="1.19148" stroke-linecap="round" stroke-linejoin="round"/>
<path d="M208.326 10.9351L209.28 16.2393" stroke="#263238" stroke-width="1.19148" stroke-linecap="round" stroke-linejoin="round"/>
<path d="M221.918 13.1709C221.918 13.1709 211.937 14.8454 208.092 18.1103" stroke="#263238" stroke-width="1.19148" stroke-linecap="round" stroke-linejoin="round"/>
<path d="M219.57 72.1353C222.826 69.3288 222.573 63.7158 218.99 59.5155C215.538 55.4742 210.253 54.2861 206.96 56.709C208.073 61.0123 210.113 65.8394 212.638 68.412C214.481 70.0904 216.49 71.5762 218.635 72.8462C218.971 72.6426 219.284 72.4043 219.57 72.1353Z" fill="#7E57C2"/>
<path d="M219.57 72.1353C222.826 69.3288 222.573 63.7158 218.99 59.5155C215.538 55.4742 210.253 54.2861 206.96 56.709C208.073 61.0123 210.113 65.8394 212.638 68.412C214.481 70.0904 216.49 71.5762 218.635 72.8462C218.971 72.6426 219.284 72.4043 219.57 72.1353Z" stroke="#263238" stroke-width="1.19148" stroke-linecap="round" stroke-linejoin="round"/>
<path d="M213.218 83.0711C213.218 83.0711 209.037 83.5107 207.718 84.6427C206.399 85.7746 196.361 94.3624 194.733 99.4515C193.105 104.541 199.289 119.77 206.043 125.645C212.797 131.52 221.235 137.741 228.401 136.46C235.567 135.178 243.799 124.139 244.651 121.136C245.502 118.133 217.465 83.7166 217.465 83.7166C217.465 83.7166 215.473 81.7146 213.218 83.0711Z" fill="white"/>
<mask id="mask2_730_112972" style="mask-type:luminance" maskUnits="userSpaceOnUse" x="194" y="82" width="51" height="55">
<path d="M213.218 83.0711C213.218 83.0711 209.037 83.5107 207.718 84.6427C206.399 85.7746 196.361 94.3624 194.733 99.4515C193.105 104.541 199.289 119.77 206.043 125.645C212.797 131.52 221.235 137.741 228.401 136.46C235.567 135.178 243.799 124.139 244.651 121.136C245.502 118.133 217.465 83.7166 217.465 83.7166C217.465 83.7166 215.473 81.7146 213.218 83.0711Z" fill="white"/>
</mask>
<g mask="url(#mask2_730_112972)">
<path d="M213.218 83.0711C213.218 83.0711 212.395 83.1553 211.347 83.3517L212.283 84.9327C212.283 84.9327 211.422 93.8011 217.503 103.848C223.584 113.895 234.239 120.276 233.93 123.924C233.621 127.572 234.866 132.446 225.716 131.838C216.567 131.23 206.857 115.71 203.508 108.105C201.768 104.148 200.271 98.1418 198.559 93.4924C196.908 95.2241 195.589 97.2439 194.668 99.4515C193.04 104.541 199.223 119.77 205.978 125.645C212.732 131.52 221.17 137.741 228.336 136.46C235.502 135.178 243.734 124.139 244.585 121.136C245.437 118.133 217.4 83.7166 217.4 83.7166C217.4 83.7166 215.473 81.7146 213.218 83.0711Z" fill="#7E57C2"/>
<path opacity="0.5" d="M213.218 83.0711C213.218 83.0711 212.395 83.1553 211.347 83.3517L212.283 84.9327C212.283 84.9327 211.422 93.8011 217.503 103.848C223.584 113.895 234.239 120.276 233.93 123.924C233.621 127.572 234.866 132.446 225.716 131.838C216.567 131.23 206.857 115.71 203.508 108.105C201.768 104.148 200.271 98.1418 198.559 93.4924C196.908 95.2241 195.589 97.2439 194.668 99.4515C193.04 104.541 199.223 119.77 205.978 125.645C212.732 131.52 221.17 137.741 228.336 136.46C235.502 135.178 243.734 124.139 244.585 121.136C245.437 118.133 217.4 83.7166 217.4 83.7166C217.4 83.7166 215.473 81.7146 213.218 83.0711Z" fill="white"/>
</g>
<path d="M213.218 83.0711C213.218 83.0711 209.037 83.5107 207.718 84.6427C206.399 85.7746 196.361 94.3624 194.733 99.4515C193.105 104.541 199.289 119.77 206.043 125.645C212.797 131.52 221.235 137.741 228.401 136.46C235.567 135.178 243.799 124.139 244.651 121.136C245.502 118.133 217.465 83.7166 217.465 83.7166C217.465 83.7166 215.473 81.7146 213.218 83.0711Z" stroke="#263238" stroke-width="1.19148" stroke-linecap="round" stroke-linejoin="round"/>
<path d="M248.935 62.6678C248.935 62.6678 244.501 61.171 237.896 63.9775C231.292 66.7839 214.771 76.485 212.348 84.9324C210.748 90.4799 228.251 116.384 239.187 120.649C242.125 121.791 244.8 123.035 250.815 118.133C256.831 113.231 269.441 99.6197 272.743 93.6232C276.046 87.6267 270.872 83.155 269.142 80.5263C267.411 77.8976 253.575 60.6845 248.935 62.6678Z" fill="white"/>
<mask id="mask3_730_112972" style="mask-type:luminance" maskUnits="userSpaceOnUse" x="212" y="62" width="62" height="60">
<path d="M248.935 62.6678C248.935 62.6678 244.501 61.171 237.896 63.9775C231.292 66.7839 214.771 76.485 212.348 84.9324C210.748 90.4799 228.251 116.384 239.187 120.649C242.125 121.791 244.8 123.035 250.815 118.133C256.831 113.231 269.441 99.6197 272.743 93.6232C276.046 87.6267 270.872 83.155 269.142 80.5263C267.411 77.8976 253.575 60.6845 248.935 62.6678Z" fill="white"/>
</mask>
<g mask="url(#mask3_730_112972)">
<path d="M272.781 93.5391L261.377 97.1688C261.377 97.1688 249.515 111.201 245.258 114.821C241.002 118.442 227.606 109.648 223.04 105.382L221.693 104.129C227.147 111.538 233.93 118.61 239.187 120.668C242.124 121.81 244.8 123.054 250.815 118.152C256.83 113.25 269.441 99.6385 272.743 93.642C272.761 93.6099 272.774 93.5752 272.781 93.5391Z" fill="#7E57C2"/>
<path d="M266.859 92.2854L272.996 93.0805C275.718 87.3553 270.854 83.0708 269.142 80.5075C267.43 77.9443 253.575 60.6845 248.935 62.6677C248.085 62.429 247.208 62.3001 246.325 62.2842C240.712 66.5126 241.348 71.3678 246.475 80.1146C251.601 88.8615 266.859 92.2854 266.859 92.2854Z" fill="#7E57C2"/>
<g opacity="0.5">
<path d="M272.781 93.5391L261.377 97.1688C261.377 97.1688 249.515 111.201 245.258 114.821C241.002 118.442 227.606 109.648 223.04 105.382L221.693 104.129C227.147 111.538 233.93 118.61 239.187 120.668C242.124 121.81 244.8 123.054 250.815 118.152C256.83 113.25 269.441 99.6385 272.743 93.642C272.761 93.6099 272.774 93.5752 272.781 93.5391Z" fill="white"/>
<path d="M266.859 92.2854L272.996 93.0805C275.718 87.3553 270.854 83.0708 269.142 80.5075C267.43 77.9443 253.575 60.6845 248.935 62.6677C248.085 62.429 247.208 62.3001 246.325 62.2842C240.712 66.5126 241.348 71.3678 246.475 80.1146C251.601 88.8615 266.859 92.2854 266.859 92.2854Z" fill="white"/>
</g>
</g>
<path d="M248.935 62.6678C248.935 62.6678 244.501 61.171 237.896 63.9775C231.292 66.7839 214.771 76.485 212.348 84.9324C210.748 90.4799 228.251 116.384 239.187 120.649C242.125 121.791 244.8 123.035 250.815 118.133C256.831 113.231 269.441 99.6197 272.743 93.6232C276.046 87.6267 270.872 83.155 269.142 80.5263C267.411 77.8976 253.575 60.6845 248.935 62.6678Z" stroke="#263238" stroke-width="1.19148" stroke-linecap="round" stroke-linejoin="round"/>
<path d="M253.914 88.318L242.573 72.7603C240.78 70.3011 237.334 69.7608 234.875 71.5533L222.9 80.2821C220.441 82.0746 219.901 85.5213 221.693 87.9804L233.034 103.538C234.826 105.997 238.273 106.538 240.732 104.745L252.707 96.0163C255.166 94.2238 255.706 90.7771 253.914 88.318Z" fill="white" stroke="#263238" stroke-width="1.19148" stroke-linecap="round" stroke-linejoin="round"/>
<path d="M397.8 180.633C383.814 144.149 348.827 144.551 317.965 144.935C307.329 145.066 297.281 145.197 288.029 143.999C256.812 140.052 247.888 107.964 247.803 107.515C247.728 107.232 247.598 106.967 247.421 106.734C247.243 106.501 247.021 106.305 246.768 106.158C246.515 106.011 246.235 105.915 245.945 105.875C245.655 105.836 245.36 105.855 245.076 105.93C244.793 106.005 244.528 106.135 244.295 106.312C244.062 106.49 243.866 106.712 243.719 106.965C243.572 107.218 243.476 107.498 243.436 107.788C243.397 108.078 243.416 108.373 243.491 108.657C243.584 109.012 253.21 144.056 287.459 148.396C297.029 149.612 307.703 149.472 318.031 149.332C348.902 148.948 380.765 148.546 393.646 182.158C396.519 189.917 397.258 198.305 395.785 206.446C394.313 214.588 390.683 222.185 385.274 228.446C375.694 239.476 362.102 243.947 347.994 240.711C334.682 237.651 321.529 233.442 308.807 229.372C287.749 222.637 265.98 215.667 242.873 213.731C203.255 210.401 175.696 229.7 143.814 252.03C137.397 256.53 130.764 261.17 123.813 265.791L119.856 268.429C100.127 281.601 79.7331 295.222 56.6545 297.682C38.7118 299.553 20.4698 291.19 11.2365 276.774C8.6715 272.854 6.91215 268.463 6.06093 263.857C5.2097 259.251 5.28362 254.521 6.27837 249.944C7.19899 245.982 8.92369 242.251 11.3455 238.982C13.7674 235.714 16.8348 232.978 20.3575 230.944C32.3037 223.825 53.4084 221.458 71.4072 223.46L71.7159 219.016C52.8284 217.005 30.7882 219.587 18.0749 227.155C14.0483 229.516 10.5422 232.67 7.76856 236.424C4.99494 240.178 3.01135 244.456 1.9377 248.999C0.794529 254.168 0.695549 259.514 1.64657 264.722C2.59759 269.93 4.57945 274.896 7.4758 279.328C16.7372 293.8 33.4918 302.546 51.2755 302.575C53.2285 302.574 55.1801 302.471 57.1223 302.266C81.286 299.693 103.092 285.137 122.317 272.33L126.264 269.692C133.271 265.015 139.923 260.337 146.359 255.875C177.539 234.031 204.462 215.162 242.49 218.362C265.091 220.233 286.617 227.146 307.432 233.807C320.248 237.904 333.494 242.142 346.984 245.238C362.756 248.859 377.93 243.872 388.632 231.561C394.59 224.676 398.584 216.315 400.197 207.354C401.811 198.393 400.982 189.164 397.8 180.633Z" fill="white" stroke="#263238" stroke-width="1.19148" stroke-linecap="round" stroke-linejoin="round"/>
<path d="M242.396 78.515C242.396 79.1163 242.218 79.7041 241.884 80.2041C241.55 80.7041 241.075 81.0938 240.519 81.3239C239.964 81.554 239.352 81.6142 238.763 81.4969C238.173 81.3796 237.631 81.09 237.206 80.6648C236.781 80.2396 236.491 79.6979 236.374 79.1081C236.257 78.5183 236.317 77.907 236.547 77.3515C236.777 76.7959 237.167 76.3211 237.667 75.987C238.167 75.6529 238.754 75.4746 239.356 75.4746C240.162 75.4746 240.935 75.7949 241.506 76.3651C242.076 76.9353 242.396 77.7086 242.396 78.515Z" fill="#7E57C2" stroke="#263238" stroke-width="1.19148" stroke-linecap="round" stroke-linejoin="round"/>
<path d="M234.145 85.4563C234.147 86.0584 233.97 86.6475 233.637 87.1489C233.303 87.6503 232.829 88.0415 232.273 88.2728C231.717 88.504 231.105 88.565 230.514 88.448C229.923 88.331 229.381 88.0413 228.955 87.6155C228.529 87.1897 228.239 86.6471 228.122 86.0565C228.005 85.4659 228.066 84.8538 228.298 84.2978C228.529 83.7419 228.92 83.2672 229.422 82.9338C229.923 82.6004 230.512 82.4235 231.114 82.4253C231.918 82.4253 232.689 82.7446 233.257 83.3131C233.826 83.8815 234.145 84.6524 234.145 85.4563Z" fill="#7E57C2" stroke="#263238" stroke-width="1.19148" stroke-linecap="round" stroke-linejoin="round"/>
<path d="M276.007 86.196C289.155 82.3762 296.717 68.6213 292.897 55.4735C289.077 42.3257 275.322 34.7639 262.174 38.5837C249.027 42.4035 241.465 56.1584 245.284 69.3062C249.104 82.4539 262.859 90.0158 276.007 86.196Z" fill="white"/>
<mask id="mask4_730_112972" style="mask-type:luminance" maskUnits="userSpaceOnUse" x="244" y="37" width="50" height="51">
<path d="M276.007 86.1955C289.155 82.3757 296.717 68.6208 292.897 55.473C289.077 42.3252 275.322 34.7634 262.174 38.5832C249.027 42.403 241.465 56.1579 245.284 69.3057C249.104 82.4535 262.859 90.0153 276.007 86.1955Z" fill="white"/>
</mask>
<g mask="url(#mask4_730_112972)">
<path d="M287.927 46.2684C287.066 45.2607 286.128 44.3223 285.12 43.4619C286.578 48.574 286.352 54.0196 284.476 58.9934C282.6 63.9672 279.173 68.2052 274.702 71.0807C270.231 73.9562 264.953 75.3165 259.649 74.9605C254.345 74.6044 249.296 72.551 245.25 69.1037C246.254 72.6718 248.047 75.9691 250.495 78.7525C252.944 81.5359 255.985 83.7346 259.396 85.1866C262.807 86.6386 266.5 87.3069 270.203 87.1423C273.906 86.9777 277.525 85.9844 280.794 84.2355C284.062 82.4866 286.897 80.0268 289.089 77.0371C291.28 74.0475 292.773 70.6043 293.458 66.961C294.142 63.3178 294.001 59.5675 293.043 55.9863C292.086 52.405 290.338 49.0842 287.927 46.2684Z" fill="#7E57C2"/>
<path opacity="0.5" d="M287.927 46.2684C287.066 45.2607 286.128 44.3223 285.12 43.4619C286.578 48.574 286.352 54.0196 284.476 58.9934C282.6 63.9672 279.173 68.2052 274.702 71.0807C270.231 73.9562 264.953 75.3165 259.649 74.9605C254.345 74.6044 249.296 72.551 245.25 69.1037C246.254 72.6718 248.047 75.9691 250.495 78.7525C252.944 81.5359 255.985 83.7346 259.396 85.1866C262.807 86.6386 266.5 87.3069 270.203 87.1423C273.906 86.9777 277.525 85.9844 280.794 84.2355C284.062 82.4866 286.897 80.0268 289.089 77.0371C291.28 74.0475 292.773 70.6043 293.458 66.961C294.142 63.3178 294.001 59.5675 293.043 55.9863C292.086 52.405 290.338 49.0842 287.927 46.2684Z" fill="white"/>
</g>
<path d="M276.007 86.196C289.155 82.3762 296.717 68.6213 292.897 55.4735C289.077 42.3257 275.322 34.7639 262.174 38.5837C249.027 42.4035 241.465 56.1584 245.284 69.3062C249.104 82.4539 262.859 90.0158 276.007 86.196Z" stroke="#263238" stroke-width="1.19148" stroke-linecap="round" stroke-linejoin="round"/>
<path d="M291.098 79.516L298.32 73.3418" stroke="#263238" stroke-width="1.19148" stroke-linecap="round" stroke-linejoin="round"/>
<path d="M300.237 74.1184C300.622 73.7896 300.86 73.3216 300.9 72.8172C300.939 72.3128 300.777 71.8134 300.448 71.4288C300.119 71.0443 299.651 70.806 299.147 70.7666C298.642 70.7271 298.143 70.8896 297.758 71.2183C297.568 71.3811 297.412 71.5798 297.298 71.8031C297.184 72.0263 297.116 72.2698 297.096 72.5195C297.057 73.0239 297.219 73.5233 297.548 73.9079C297.877 74.2924 298.345 74.5307 298.849 74.5701C299.353 74.6096 299.853 74.4471 300.237 74.1184Z" fill="#263238"/>
<path d="M282.248 87C281.97 86.6746 281.759 86.2975 281.627 85.8905C281.495 85.4834 281.444 85.0543 281.478 84.6277C281.512 84.2011 281.63 83.7853 281.824 83.4042C282.019 83.0231 282.287 82.6841 282.613 82.4067L287.365 78.328C288.025 77.7684 288.879 77.4927 289.742 77.561C290.604 77.6294 291.404 78.0363 291.968 78.6928C292.246 79.0176 292.458 79.3941 292.591 79.8009C292.724 80.2076 292.775 80.6365 292.742 81.0631C292.709 81.4897 292.592 81.9056 292.398 82.2871C292.205 82.6685 291.937 83.008 291.612 83.2861L286.851 87.3648C286.192 87.9267 285.337 88.204 284.474 88.1356C283.611 88.0671 282.81 87.6587 282.248 87Z" fill="white" stroke="#263238" stroke-width="1.19148" stroke-linecap="round" stroke-linejoin="round"/>
<path d="M274.493 91.088C274.493 91.088 264.867 88.4873 261.078 95.7187C257.289 102.95 261.565 120.977 261.565 120.977C261.565 120.977 254.53 132.409 252.743 133.653C250.956 134.897 245.923 134.354 240.965 136.88C236.007 139.406 237.644 141.997 238.963 142.867C240.282 143.737 244.324 141.137 245.512 141.23C246.7 141.324 246.569 143.466 241.891 148.321C237.214 153.176 235.072 153.298 236.409 155.543C236.772 156.186 237.331 156.695 238.005 156.996C238.678 157.298 239.43 157.375 240.151 157.218C239.986 157.774 240.028 158.371 240.269 158.899C240.509 159.427 240.933 159.85 241.461 160.09C243.388 161.025 244.211 160.305 244.211 160.305C244.211 160.305 244.024 162.747 245.811 163.495C247.213 163.907 248.703 163.907 250.105 163.495C250.105 163.495 251.798 165.478 253.51 165.151C255.222 164.823 259.123 160.052 262.21 155.992C265.297 151.932 277.178 137.498 281.855 128.648C286.533 119.798 284.316 110.874 283.362 105.42C282.407 99.9658 278.085 92.2854 274.493 91.088Z" fill="white"/>
<mask id="mask5_730_112972" style="mask-type:luminance" maskUnits="userSpaceOnUse" x="236" y="90" width="49" height="76">
<path d="M274.493 91.088C274.493 91.088 264.867 88.4873 261.078 95.7187C257.289 102.95 261.565 120.977 261.565 120.977C261.565 120.977 254.53 132.409 252.743 133.653C250.956 134.897 245.923 134.354 240.965 136.88C236.007 139.406 237.644 141.997 238.963 142.867C240.282 143.737 244.324 141.137 245.512 141.23C246.7 141.324 246.569 143.466 241.891 148.321C237.214 153.176 235.072 153.298 236.409 155.543C236.772 156.186 237.331 156.695 238.005 156.996C238.678 157.298 239.43 157.375 240.151 157.218C239.986 157.774 240.028 158.371 240.269 158.899C240.509 159.427 240.933 159.85 241.461 160.09C243.388 161.025 244.211 160.305 244.211 160.305C244.211 160.305 244.024 162.747 245.811 163.495C247.213 163.907 248.703 163.907 250.105 163.495C250.105 163.495 251.798 165.478 253.51 165.151C255.222 164.823 259.123 160.052 262.21 155.992C265.297 151.932 277.178 137.498 281.855 128.648C286.533 119.798 284.316 110.874 283.362 105.42C282.407 99.9658 278.085 92.2854 274.493 91.088Z" fill="white"/>
</mask>
<g mask="url(#mask5_730_112972)">
<path d="M283.362 105.448C282.426 99.9937 278.085 92.2853 274.493 91.0879L274.269 91.0317C277.559 98.9251 278.879 107.501 278.113 116.019C276.897 131.529 262.668 143.765 258.337 148.265C254.867 151.876 250.498 156.937 244.202 160.679C244.178 161.25 244.315 161.816 244.598 162.312C244.881 162.809 245.298 163.215 245.802 163.485C247.203 163.898 248.694 163.898 250.096 163.485C250.096 163.485 251.789 165.469 253.501 165.141C255.213 164.814 259.114 160.043 262.201 155.983C265.288 151.923 277.169 137.488 281.846 128.638C286.524 119.789 284.316 110.902 283.362 105.448Z" fill="#7E57C2"/>
<path opacity="0.5" d="M283.362 105.448C282.426 99.9937 278.085 92.2853 274.493 91.0879L274.269 91.0317C277.559 98.9251 278.879 107.501 278.113 116.019C276.897 131.529 262.668 143.765 258.337 148.265C254.867 151.876 250.498 156.937 244.202 160.679C244.178 161.25 244.315 161.816 244.598 162.312C244.881 162.809 245.298 163.215 245.802 163.485C247.203 163.898 248.694 163.898 250.096 163.485C250.096 163.485 251.789 165.469 253.501 165.141C255.213 164.814 259.114 160.043 262.201 155.983C265.288 151.923 277.169 137.488 281.846 128.638C286.524 119.789 284.316 110.902 283.362 105.448Z" fill="white"/>
</g>
<path d="M274.493 91.088C274.493 91.088 264.867 88.4873 261.078 95.7187C257.289 102.95 261.565 120.977 261.565 120.977C261.565 120.977 254.53 132.409 252.743 133.653C250.956 134.897 245.923 134.354 240.965 136.88C236.007 139.406 237.644 141.997 238.963 142.867C240.282 143.737 244.324 141.137 245.512 141.23C246.7 141.324 246.569 143.466 241.891 148.321C237.214 153.176 235.072 153.298 236.409 155.543C236.772 156.186 237.331 156.695 238.005 156.996C238.678 157.298 239.43 157.375 240.151 157.218C239.986 157.774 240.028 158.371 240.269 158.899C240.509 159.427 240.933 159.85 241.461 160.09C243.388 161.025 244.211 160.305 244.211 160.305C244.211 160.305 244.024 162.747 245.811 163.495C247.213 163.907 248.703 163.907 250.105 163.495C250.105 163.495 251.798 165.478 253.51 165.151C255.222 164.823 259.123 160.052 262.21 155.992C265.297 151.932 277.178 137.498 281.855 128.648C286.533 119.798 284.316 110.874 283.362 105.42C282.407 99.9658 278.085 92.2854 274.493 91.088Z" stroke="#263238" stroke-width="1.19148" stroke-linecap="round" stroke-linejoin="round"/>
<path d="M253.501 165.179C255.213 164.851 259.114 160.08 262.201 156.02C263.95 153.728 268.515 148.106 272.996 142.053C269.993 131.763 261.106 128.685 257.149 127.834C255.362 130.509 253.529 133.073 252.743 133.625C250.956 134.869 245.923 134.326 240.965 136.852C236.007 139.378 237.644 141.969 238.963 142.839C240.282 143.709 244.324 141.109 245.512 141.202C246.7 141.296 246.569 143.438 241.891 148.293C237.214 153.148 235.072 153.298 236.409 155.543C236.772 156.186 237.331 156.695 238.005 156.996C238.678 157.297 239.43 157.375 240.151 157.218C239.986 157.774 240.028 158.371 240.269 158.899C240.509 159.427 240.933 159.85 241.461 160.09C243.388 161.025 244.211 160.305 244.211 160.305C244.211 160.305 244.024 162.746 245.811 163.495C247.213 163.907 248.703 163.907 250.105 163.495C250.105 163.495 251.789 165.506 253.501 165.179Z" stroke="#263238" stroke-width="1.19148" stroke-linecap="round" stroke-linejoin="round"/>
<path d="M240.151 157.218C243.714 155.368 246.89 152.853 249.506 149.809" stroke="#263238" stroke-width="1.19148" stroke-linecap="round" stroke-linejoin="round"/>
<path d="M244.202 160.305C247.946 158.485 251.282 155.923 254.006 152.774" stroke="#263238" stroke-width="1.19148" stroke-linecap="round" stroke-linejoin="round"/>
<path d="M250.095 163.523C250.095 163.523 255.484 159.491 258.047 156.161" stroke="#263238" stroke-width="1.19148" stroke-linecap="round" stroke-linejoin="round"/>
<path d="M283.792 123.774C283.988 123.063 284.138 122.352 284.269 121.65C276.429 116.421 266.551 118.133 261.284 119.658C261.452 120.472 261.564 120.949 261.564 120.949L260.75 122.258C273.342 119.218 280.284 121.491 283.792 123.774Z" fill="white" stroke="#263238" stroke-width="1.19148" stroke-linecap="round" stroke-linejoin="round"/>
<path d="M278.328 128.555C279.025 129.367 279.853 130.057 280.779 130.594C281.163 129.93 281.528 129.294 281.855 128.723C284.239 124.024 285.189 118.728 284.587 113.493C282.601 113.58 280.702 114.328 279.189 115.617C277.368 117.224 276.255 119.485 276.094 121.908C275.933 124.332 276.736 126.721 278.328 128.555Z" fill="#7E57C2" stroke="#263238" stroke-width="1.19148" stroke-linecap="round" stroke-linejoin="round"/>
<path d="M189.691 94.4467C189.691 94.4467 193.582 105.673 198.587 106.505C203.592 107.338 210.552 98.8435 211.965 92.4728C213.377 86.1021 208.41 80.9756 201.225 74.5769C194.041 68.1781 183.741 64.4548 175.031 69.31C166.322 74.1652 153.45 88.0199 153.45 88.0199C153.45 88.0199 145.395 80.9382 141.12 84.596C136.845 88.2537 142.42 99.4422 146.359 104.054C150.297 108.666 157.482 115.43 164.376 113.821C171.271 112.212 176.734 99.2738 181.215 95.4664C185.696 91.6589 188.699 93.296 189.691 94.4467Z" fill="white"/>
<mask id="mask6_730_112972" style="mask-type:luminance" maskUnits="userSpaceOnUse" x="139" y="67" width="74" height="48">
<path d="M189.691 94.4467C189.691 94.4467 193.582 105.673 198.587 106.505C203.592 107.338 210.552 98.8435 211.965 92.4728C213.377 86.1021 208.41 80.9756 201.225 74.5769C194.041 68.1781 183.741 64.4548 175.031 69.31C166.322 74.1652 153.45 88.0199 153.45 88.0199C153.45 88.0199 145.395 80.9382 141.12 84.596C136.845 88.2537 142.42 99.4422 146.359 104.054C150.297 108.666 157.482 115.43 164.376 113.821C171.271 112.212 176.734 99.2738 181.215 95.4664C185.696 91.6589 188.699 93.296 189.691 94.4467Z" fill="white"/>
</mask>
<g mask="url(#mask6_730_112972)">
<path d="M200.86 97.1689C193.255 93.5204 195.388 84.3901 187.763 81.9578C180.139 79.5255 180.766 84.6988 174.667 94.4372C168.567 104.176 157.323 103.558 149.717 101.126C147.306 100.346 144.936 99.4434 142.617 98.4224C143.657 100.456 144.911 102.372 146.359 104.138C150.297 108.75 157.454 115.448 164.339 113.839C171.224 112.23 176.697 99.2924 181.178 95.485C185.659 91.6775 188.718 93.3146 189.7 94.4653C189.7 94.4653 193.592 105.691 198.596 106.524C203.601 107.356 210.561 98.8621 211.974 92.4914C212.208 91.4482 212.268 90.3735 212.152 89.3107L211.796 89.2359C211.796 89.2359 208.438 100.808 200.86 97.1689Z" fill="#7E57C2"/>
<path opacity="0.5" d="M200.86 97.1689C193.255 93.5204 195.388 84.3901 187.763 81.9578C180.139 79.5255 180.766 84.6988 174.667 94.4372C168.567 104.176 157.323 103.558 149.717 101.126C147.306 100.346 144.936 99.4434 142.617 98.4224C143.657 100.456 144.911 102.372 146.359 104.138C150.297 108.75 157.454 115.448 164.339 113.839C171.224 112.23 176.697 99.2924 181.178 95.485C185.659 91.6775 188.718 93.3146 189.7 94.4653C189.7 94.4653 193.592 105.691 198.596 106.524C203.601 107.356 210.561 98.8621 211.974 92.4914C212.208 91.4482 212.268 90.3735 212.152 89.3107L211.796 89.2359C211.796 89.2359 208.438 100.808 200.86 97.1689Z" fill="white"/>
</g>
<path d="M189.691 94.4467C189.691 94.4467 193.582 105.673 198.587 106.505C203.592 107.338 210.552 98.8435 211.965 92.4728C213.377 86.1021 208.41 80.9756 201.225 74.5769C194.041 68.1781 183.741 64.4548 175.031 69.31C166.322 74.1652 153.45 88.0199 153.45 88.0199C153.45 88.0199 145.395 80.9382 141.12 84.596C136.845 88.2537 142.42 99.4422 146.359 104.054C150.297 108.666 157.482 115.43 164.376 113.821C171.271 112.212 176.734 99.2738 181.215 95.4664C185.696 91.6589 188.699 93.296 189.691 94.4467Z" stroke="#263238" stroke-width="1.19148" stroke-linecap="round" stroke-linejoin="round"/>
<path d="M165.153 76.7563C158.941 82.2009 153.478 88.0851 153.478 88.0851C153.478 88.0851 145.423 81.0035 141.148 84.6612C136.873 88.319 142.449 99.5075 146.387 104.119C150.325 108.731 157.482 115.43 164.376 113.82C170.588 112.37 175.602 101.659 179.831 96.8413C173.958 90.9211 169.01 84.1502 165.153 76.7563Z" stroke="#263238" stroke-width="1.19148" stroke-linecap="round" stroke-linejoin="round"/>
<path d="M185.893 67.2331C185.129 67.1444 184.36 67.0976 183.591 67.0928C185.876 75.6292 186.399 84.5417 185.126 93.2865C185.873 93.0864 186.656 93.0545 187.417 93.193C187.932 86.5603 188.316 75.5683 185.893 67.2331Z" stroke="#263238" stroke-width="1.19148" stroke-linecap="round" stroke-linejoin="round"/>
<path d="M191.141 81.8079C189.902 82.8605 188.378 83.5221 186.763 83.7092C185.148 83.8963 183.514 83.6004 182.067 82.8589C180.62 82.1175 179.426 80.9637 178.634 79.5435C177.843 78.1233 177.49 76.5004 177.621 74.8798C177.752 73.2593 178.36 71.7138 179.368 70.4388C180.377 69.1638 181.741 68.2164 183.288 67.7164C184.835 67.2164 186.496 67.1862 188.06 67.6297C189.624 68.0731 191.022 68.9703 192.076 70.2078C192.777 71.0306 193.309 71.9835 193.642 73.012C193.974 74.0405 194.1 75.1244 194.014 76.2018C193.927 77.2792 193.628 78.3289 193.135 79.2909C192.642 80.2528 191.965 81.1081 191.141 81.8079Z" fill="#7E57C2" stroke="#263238" stroke-width="1.19148" stroke-linecap="round" stroke-linejoin="round"/>
<path d="M164.376 113.821C166.015 113.358 167.512 112.497 168.736 111.313C164.33 112.043 156.191 111.8 148.791 102.894C141.588 94.2501 141.466 87.5239 142.177 83.9878C141.81 84.1568 141.467 84.3738 141.158 84.6333C136.873 88.291 142.458 99.4795 146.396 104.091C150.335 108.703 157.482 115.43 164.376 113.821Z" stroke="#263238" stroke-width="1.19148" stroke-linecap="round" stroke-linejoin="round"/>
<path d="M212.208 134.205C212.208 134.205 223.593 137.554 227.176 133.98C230.759 130.407 231.292 119.546 223.546 114.943C217.933 111.631 212.124 111.201 202.741 113.297C193.358 115.392 184.349 121.651 183.255 131.529C182.16 141.408 185.968 159.987 185.968 159.987C185.968 159.987 175.537 162.429 176.023 168.042C176.51 173.654 188.868 175.61 194.902 175.076C200.935 174.543 210.562 172.616 213.246 166.077C215.931 159.538 208.569 147.573 208.064 141.754C207.559 135.936 210.702 134.336 212.208 134.205Z" fill="white"/>
<mask id="mask7_730_112972" style="mask-type:luminance" maskUnits="userSpaceOnUse" x="176" y="112" width="54" height="64">
<path d="M212.208 134.205C212.208 134.205 223.593 137.554 227.176 133.98C230.759 130.407 231.292 119.546 223.546 114.943C217.933 111.631 212.124 111.201 202.741 113.297C193.358 115.392 184.349 121.651 183.255 131.529C182.16 141.408 185.968 159.987 185.968 159.987C185.968 159.987 175.537 162.429 176.023 168.042C176.51 173.654 188.868 175.61 194.902 175.076C200.935 174.543 210.562 172.616 213.246 166.077C215.931 159.538 208.569 147.573 208.064 141.754C207.559 135.936 210.702 134.336 212.208 134.205Z" fill="white"/>
</mask>
<g mask="url(#mask7_730_112972)">
<path d="M212.208 134.205C212.208 134.205 223.593 137.554 227.176 133.981C229.515 131.651 230.534 126.253 228.841 121.492C228.841 121.492 229.776 126.366 223.06 127.582C216.343 128.798 205.416 126.366 200.552 132.446C195.687 138.527 202.675 151.006 203.283 159.22C203.891 167.434 202.049 170.137 193.835 171.073C185.621 172.008 178.278 166.115 176.584 169.688C179.101 174.02 189.522 175.535 194.92 175.058C200.963 174.525 210.58 172.598 213.265 166.058C215.95 159.519 208.588 147.554 208.082 141.736C207.577 135.917 210.702 134.336 212.208 134.205Z" fill="#7E57C2"/>
<path opacity="0.5" d="M212.208 134.205C212.208 134.205 223.593 137.554 227.176 133.981C229.515 131.651 230.534 126.253 228.841 121.492C228.841 121.492 229.776 126.366 223.06 127.582C216.343 128.798 205.416 126.366 200.552 132.446C195.687 138.527 202.675 151.006 203.283 159.22C203.891 167.434 202.049 170.137 193.835 171.073C185.621 172.008 178.278 166.115 176.584 169.688C179.101 174.02 189.522 175.535 194.92 175.058C200.963 174.525 210.58 172.598 213.265 166.058C215.95 159.519 208.588 147.554 208.082 141.736C207.577 135.917 210.702 134.336 212.208 134.205Z" fill="white"/>
</g>
<path d="M212.208 134.205C212.208 134.205 223.593 137.554 227.176 133.98C230.759 130.407 231.292 119.546 223.546 114.943C217.933 111.631 212.124 111.201 202.741 113.297C193.358 115.392 184.349 121.651 183.255 131.529C182.16 141.408 185.968 159.987 185.968 159.987C185.968 159.987 175.537 162.429 176.023 168.042C176.51 173.654 188.868 175.61 194.902 175.076C200.935 174.543 210.562 172.616 213.246 166.077C215.931 159.538 208.569 147.573 208.064 141.754C207.559 135.936 210.702 134.336 212.208 134.205Z" stroke="#263238" stroke-width="1.19148" stroke-linecap="round" stroke-linejoin="round"/>
<path d="M183.554 143.943C184.377 152.166 185.986 160.024 185.986 160.024C185.986 160.024 175.555 162.466 176.042 168.079C176.528 173.692 188.886 175.647 194.92 175.114C200.954 174.581 210.58 172.653 213.265 166.114C215.688 160.211 209.953 149.912 208.419 143.663C200.192 145.007 191.809 145.101 183.554 143.943Z" stroke="#263238" stroke-width="1.19148" stroke-linecap="round" stroke-linejoin="round"/>
<path d="M187.839 121.548C187.325 122.116 186.844 122.712 186.398 123.335C194.657 126.44 202.202 131.184 208.578 137.283C208.855 136.575 209.283 135.937 209.832 135.412C204.771 131.062 196.043 124.364 187.839 121.548Z" stroke="#263238" stroke-width="1.19148" stroke-linecap="round" stroke-linejoin="round"/>
<path d="M197.033 134.277C201.37 132.912 203.78 128.291 202.416 123.954C201.052 119.616 196.43 117.206 192.093 118.571C187.756 119.935 185.346 124.556 186.71 128.894C188.074 133.231 192.696 135.641 197.033 134.277Z" fill="#7E57C2" stroke="#263238" stroke-width="1.19148" stroke-linecap="round" stroke-linejoin="round"/>
<path d="M213.265 166.077C213.843 164.476 214.01 162.755 213.752 161.072C211.787 165.086 206.866 171.568 195.341 172.429C184.115 173.271 178.568 169.464 176.117 166.816C176.035 167.213 176.01 167.619 176.042 168.023C176.538 173.636 188.886 175.591 194.92 175.058C200.954 174.525 210.58 172.616 213.265 166.077Z" stroke="#263238" stroke-width="1.19148" stroke-linecap="round" stroke-linejoin="round"/>
<path d="M277.449 51.947C274.979 48.7019 272.737 45.2884 270.742 41.7314C266.554 41.1699 262.294 41.8765 258.512 43.7599C254.73 45.6433 251.6 48.6172 249.525 52.2975C247.45 55.9779 246.525 60.1957 246.871 64.4066C247.217 68.6174 248.817 72.628 251.465 75.9204C254.113 79.2128 257.687 81.636 261.725 82.8771C265.764 84.1182 270.082 84.1202 274.122 82.883C278.162 81.6457 281.738 79.2259 284.389 75.9359C287.039 72.646 288.643 68.637 288.993 64.4265C284.74 60.6609 280.873 56.4804 277.449 51.947Z" fill="#263238" stroke="#263238" stroke-width="1.19148" stroke-linecap="round" stroke-linejoin="round"/>
<path d="M279.498 71.1339C278.523 72.0856 277.284 72.722 275.943 72.9605C274.601 73.1989 273.219 73.0283 271.976 72.471C270.732 71.9136 269.686 70.9951 268.971 69.835C268.257 68.6748 267.908 67.3266 267.969 65.9655C268.031 64.6044 268.501 63.2934 269.318 62.2027C270.134 61.1121 271.26 60.2923 272.549 59.8499C273.837 59.4075 275.229 59.3629 276.544 59.722C277.858 60.081 279.034 60.8271 279.919 61.8632C280.502 62.4987 280.953 63.2431 281.247 64.0536C281.542 64.864 281.673 65.7246 281.634 66.586C281.595 67.4474 281.386 68.2925 281.02 69.073C280.653 69.8535 280.136 70.5538 279.498 71.1339Z" fill="white"/>
<path d="M272.547 55.4644C272.246 55.7308 271.872 55.9011 271.473 55.9537C271.074 56.0062 270.669 55.9386 270.309 55.7594C269.949 55.5802 269.65 55.2976 269.452 54.9478C269.253 54.598 269.164 54.1969 269.194 53.7959C269.225 53.3948 269.375 53.0121 269.624 52.6967C269.874 52.3812 270.212 52.1474 270.595 52.0252C270.978 51.903 271.389 51.8979 271.775 52.0107C272.162 52.1234 272.505 52.3488 272.762 52.6579C273.101 53.0609 273.268 53.5804 273.228 54.1051C273.187 54.6297 272.943 55.1177 272.547 55.4644Z" fill="white"/>
<path d="M72.7534 216.797L66.7485 216.207L65.8947 224.883L71.8996 225.474L72.7534 216.797Z" fill="#263238"/>
</svg>
